<!-- <?xml version="1.0" standalone="no"?>
<svg version="1.0" xmlns="http://www.w3.org/2000/svg"
 width="5209.000000pt" height="5210.000000pt" viewBox="0 0 5209.000000 5210.000000"
 preserveAspectRatio="xMidYMid meet">

<g transform="translate(0.000000,5210.000000) scale(0.100000,-0.100000)"
fill="#000000" stroke="none">
<path d="M26375 45110 c-203 -6 -226 -8 -302 -33 -162 -54 -299 -172 -373
-322 -65 -131 -70 -164 -70 -467 l0 -267 -162 162 c-480 480 -943 736 -1488
822 -105 16 -312 17 -450 1 -649 -76 -1349 -458 -2004 -1096 -1059 -1031
-1771 -2493 -1863 -3825 -12 -181 -7 -527 12 -700 72 -687 297 -1251 727
-1822 144 -191 244 -309 714 -838 97 -110 231 -267 297 -350 l120 -150 -129
-12 c-227 -20 -481 -86 -633 -163 -113 -57 -263 -238 -327 -395 -25 -60 -29
-84 -29 -167 0 -54 -3 -98 -7 -98 -34 0 -182 -26 -262 -46 -323 -81 -549 -250
-647 -483 -75 -179 -132 -509 -157 -917 l-7 -112 -76 102 c-456 610 -765 1262
-943 1988 -40 162 -86 375 -86 399 0 8 34 58 76 110 173 215 357 533 459 793
92 236 165 536 196 806 29 251 11 643 -42 905 -196 977 -833 1785 -1738 2204
-270 124 -612 222 -886 251 -55 6 -109 13 -121 15 -11 3 -70 45 -130 95 -861
717 -1928 1219 -2854 1344 -181 24 -195 26 -375 37 -564 34 -1128 -77 -1668
-330 -414 -194 -884 -539 -1188 -874 -440 -484 -678 -1001 -694 -1507 -8 -283
43 -505 176 -760 124 -235 241 -381 689 -855 125 -132 266 -283 313 -335 498
-552 859 -1133 1055 -1701 86 -248 157 -563 177 -789 4 -41 9 -86 11 -100 2
-14 5 -124 7 -245 7 -363 -10 -555 -118 -1310 -114 -797 -120 -859 -119 -1315
0 -345 2 -403 23 -555 39 -294 89 -515 178 -790 290 -898 805 -1603 1608
-2203 361 -270 822 -550 1505 -914 308 -165 396 -212 575 -311 716 -393 1198
-707 1608 -1045 l77 -64 -87 -61 c-174 -120 -397 -293 -593 -461 -153 -130
-549 -530 -674 -681 -289 -347 -546 -735 -728 -1099 -33 -66 -85 -164 -114
-217 -60 -106 -65 -109 -164 -109 l-47 0 -60 108 c-33 59 -68 121 -78 137
l-18 30 153 232 c96 148 150 239 148 252 -4 27 -385 421 -406 421 -9 0 -123
-64 -253 -143 l-235 -143 -136 81 c-122 72 -136 83 -133 105 2 14 6 88 9 165
4 77 9 158 11 180 10 106 8 187 -6 201 -8 7 -135 49 -282 91 -245 71 -268 76
-283 61 -9 -9 -74 -121 -144 -249 l-129 -234 -158 3 -158 2 -125 248 c-111
219 -128 247 -151 250 -41 5 -541 -124 -555 -143 -9 -12 -10 -89 -7 -294 6
-271 5 -279 -14 -285 -11 -3 -71 -36 -134 -71 -62 -36 -119 -63 -125 -61 -6 2
-111 70 -233 150 -122 80 -230 146 -240 146 -26 0 -415 -378 -419 -407 -3 -23
9 -45 196 -351 45 -74 82 -136 82 -139 0 -6 -136 -234 -152 -254 -12 -15 -36
-15 -291 -1 -202 12 -280 13 -288 5 -16 -16 -160 -523 -157 -552 3 -20 43 -45
251 -159 247 -136 249 -136 243 -165 -3 -16 -6 -86 -6 -156 l0 -126 -241 -120
c-132 -66 -247 -128 -256 -137 -14 -16 -10 -41 52 -288 37 -149 74 -278 82
-286 12 -12 56 -13 281 -8 147 3 272 7 278 9 6 2 21 -18 33 -43 13 -26 47 -88
77 -139 l54 -92 -150 -229 c-82 -126 -150 -239 -150 -251 0 -33 375 -421 407
-421 12 0 127 63 253 140 127 77 233 140 235 140 3 0 35 -19 72 -43 38 -24 96
-59 131 -77 59 -33 62 -36 62 -73 0 -37 -15 -318 -25 -449 -3 -53 -1 -71 13
-86 11 -13 100 -43 269 -91 139 -39 261 -71 271 -71 11 0 26 7 33 16 8 9 71
121 140 247 l127 231 153 -3 c85 -1 157 -6 161 -9 3 -4 60 -116 127 -249 81
-161 127 -244 140 -248 24 -7 541 121 560 140 10 10 13 54 12 207 -1 106 -4
232 -7 280 l-5 86 78 40 c43 22 105 56 138 76 45 27 61 33 63 22 2 -8 -10
-106 -27 -218 -16 -112 -37 -266 -46 -343 -8 -77 -18 -157 -20 -179 -10 -82
-34 -387 -40 -501 -4 -66 -9 -142 -12 -170 -2 -27 -6 -267 -8 -532 l-3 -483
-24 -42 c-15 -26 -30 -42 -39 -39 -8 2 -137 6 -287 9 l-273 5 -215 429 c-118
236 -221 431 -229 435 -22 8 -913 -217 -932 -235 -13 -14 -15 -36 -9 -146 3
-72 9 -289 12 -483 l7 -351 -130 -65 c-71 -36 -172 -91 -224 -123 -52 -31
-106 -64 -120 -72 -26 -16 -29 -14 -230 118 -559 368 -610 399 -628 392 -10
-4 -167 -151 -350 -327 -225 -217 -331 -326 -331 -340 0 -11 112 -205 249
-430 l248 -410 -57 -85 c-67 -101 -142 -227 -196 -329 l-39 -73 -155 6 c-85 4
-180 9 -210 11 -30 3 -178 12 -329 21 -239 14 -276 14 -288 1 -8 -8 -72 -214
-143 -458 -105 -366 -126 -447 -116 -463 11 -17 121 -79 670 -381 l179 -98 -7
-90 c-3 -50 -6 -178 -6 -286 l0 -196 -428 -217 c-235 -119 -431 -223 -437
-232 -14 -22 211 -923 234 -935 9 -5 158 -5 331 0 297 7 512 11 607 10 l41 -1
56 -113 c31 -62 92 -172 136 -246 44 -73 80 -135 80 -136 0 -2 -85 -133 -190
-292 -342 -521 -343 -522 -334 -542 18 -38 648 -681 666 -681 11 0 204 112
429 249 l410 249 121 -78 c66 -43 176 -109 244 -147 118 -65 124 -70 124 -99
0 -28 -22 -421 -34 -629 -18 -289 -19 -310 -3 -323 18 -15 870 -262 903 -262
14 0 29 12 42 33 24 38 400 723 430 782 l20 41 89 -8 c48 -4 177 -7 286 -7
110 0 200 -1 202 -3 1 -2 98 -192 213 -424 116 -231 218 -427 227 -434 15 -12
77 1 471 99 249 62 459 119 465 127 9 10 10 121 5 427 -4 226 -9 444 -12 482
l-5 70 133 67 c73 37 183 97 243 134 61 36 115 68 121 71 18 7 474 -297 474
-316 0 -9 -20 -108 -45 -221 -68 -306 -180 -1117 -260 -1885 -87 -835 -103
-1241 -54 -1348 13 -29 45 -43 77 -33 27 9 33 40 13 68 -14 20 -16 55 -16 238
0 186 9 415 20 484 2 11 6 57 10 101 8 106 62 634 80 790 110 933 152 1233
221 1555 74 350 277 1203 302 1269 8 21 10 20 97 -35 189 -119 224 -139 355
-205 172 -85 326 -143 545 -204 33 -9 121 -38 196 -65 819 -293 1872 -508
2714 -555 61 -4 128 -8 150 -10 22 -2 168 -7 325 -11 992 -23 1967 134 2750
443 905 357 1603 934 2031 1681 57 100 53 108 69 -138 6 -96 13 -193 15 -215
2 -22 7 -78 10 -125 4 -70 34 -492 60 -850 3 -41 8 -109 11 -150 2 -41 7 -102
9 -135 3 -33 16 -226 30 -430 14 -203 27 -395 30 -425 2 -30 7 -98 10 -150 3
-52 8 -117 10 -145 2 -27 7 -93 10 -145 3 -52 14 -228 25 -390 11 -162 24
-367 30 -455 5 -88 12 -194 15 -235 6 -85 45 -708 75 -1210 11 -184 22 -373
25 -420 8 -126 24 -421 30 -535 3 -55 8 -133 11 -173 7 -93 33 -122 79 -88 17
12 18 24 12 168 -6 136 -67 1192 -82 1413 -3 44 -14 224 -25 400 -11 176 -22
352 -25 390 -3 39 -12 176 -20 305 -21 334 -44 682 -50 770 -3 41 -14 208 -25
370 -11 162 -22 320 -25 350 -2 30 -7 98 -10 150 -3 52 -8 115 -10 140 -2 25
-7 97 -11 160 -3 63 -8 122 -9 130 -2 8 -6 69 -9 135 -4 66 -9 136 -11 155 -2
19 -7 76 -10 125 -6 107 -54 766 -60 845 -3 30 -10 125 -15 210 -6 85 -13 171
-15 190 -7 64 -19 265 -16 285 1 11 20 74 41 140 102 318 180 714 234 1195 8
69 17 157 21 195 8 98 13 149 20 232 l7 73 64 -59 c68 -62 169 -118 269 -148
57 -17 195 -18 2728 -20 l2667 -3 0 -58 c0 -31 5 -75 11 -97 15 -52 82 -119
134 -134 64 -18 3657 -15 3708 3 93 34 148 113 155 224 l4 62 2347 0 c1414 0
2375 4 2419 10 40 5 105 22 145 37 l72 27 355 6 c330 5 359 7 420 28 245 82
410 291 440 555 8 64 10 4399 8 14182 -3 13654 -4 14092 -21 14155 -11 36 -39
108 -64 160 -40 82 -58 107 -142 190 -108 108 -201 162 -346 203 l-80 22
-7240 1 c-3982 0 -7339 -3 -7460 -6z m13963 -111 c187 -38 362 -210 414 -405
11 -40 13 -2685 13 -14269 0 -13776 -1 -14222 -18 -14280 -61 -197 -222 -350
-414 -390 -58 -13 -420 -15 -2440 -15 l-2373 0 0 2790 c0 1997 -3 2804 -11
2842 -27 130 -127 266 -235 321 -121 61 -12 58 -1710 55 l-1549 -3 -65 -22
c-192 -66 -337 -209 -408 -405 l-27 -73 -3 -2752 -2 -2753 -2643 0 c-2916 0
-2714 -4 -2845 65 -85 44 -149 99 -195 167 l-37 53 10 165 c30 523 33 2050 5
2555 -2 39 -6 158 -10 265 -3 107 -8 233 -10 280 -2 47 -7 146 -10 220 -8 194
-15 341 -20 450 -3 52 -7 145 -10 205 -3 61 -10 198 -15 305 -5 107 -10 454
-10 771 l0 575 26 52 c71 142 248 199 540 172 182 -16 365 -49 779 -140 673
-148 1195 -231 1765 -280 424 -36 1001 -34 1365 6 1198 130 2029 604 2567
1468 80 128 239 446 294 588 l38 98 841 2 841 3 41 27 c80 53 78 33 81 651 2
360 -1 561 -8 587 -13 46 -50 94 -94 118 -28 15 -90 17 -700 20 l-668 3 6 32
c11 63 46 396 61 587 27 349 34 524 51 1205 7 314 -13 1377 -27 1386 -6 3 -55
12 -111 19 l-100 13 6 66 c14 132 47 315 65 356 25 56 80 116 157 171 34 24
64 44 67 44 3 0 7 -111 9 -247 l3 -248 28 -47 c15 -26 42 -59 60 -72 75 -58
49 -56 931 -56 928 0 885 -4 966 80 25 26 57 51 71 55 48 15 90 48 117 93 l27
47 3 825 2 826 -27 54 c-21 41 -40 62 -77 85 l-49 30 -609 3 -608 3 7 72 c5
40 8 167 8 284 l-1 212 481 3 c478 3 480 3 527 26 26 13 62 40 80 60 19 21 60
50 92 66 66 32 100 76 116 151 7 34 10 307 8 840 l-3 790 -25 50 c-16 32 -41
61 -68 80 l-44 30 -906 3 -906 2 -66 -32 c-36 -18 -79 -43 -95 -55 l-31 -22
-51 25 c-106 53 -245 25 -335 -69 -57 -58 -95 -138 -127 -266 l-26 -106 -5
210 c-3 136 -9 217 -17 231 -22 38 -91 93 -132 104 -27 7 -322 10 -943 8
l-903 -3 -83 -44 c-47 -25 -95 -59 -113 -80 -60 -73 -59 -57 -59 -942 0 -783
1 -810 20 -862 21 -56 72 -113 130 -143 33 -18 76 -19 793 -22 416 -1 757 -5
757 -8 0 -3 -14 -52 -32 -107 -17 -56 -52 -183 -78 -282 l-47 -180 -644 -5
c-731 -6 -665 3 -761 -97 -93 -98 -88 -43 -88 -969 0 -714 2 -809 16 -851 23
-69 66 -118 132 -150 57 -28 58 -28 272 -30 178 -1 216 -4 218 -16 3 -14 -86
-441 -108 -519 l-11 -36 -127 -4 -127 -3 -90 -45 c-75 -38 -95 -53 -122 -93
-18 -27 -37 -65 -43 -85 -6 -23 -10 -257 -10 -631 l0 -594 -32 -56 c-251 -444
-591 -739 -965 -838 -134 -35 -377 -43 -539 -18 -201 31 -442 112 -651 219
l-88 45 726 0 c824 1 785 -3 867 81 31 30 59 49 82 54 49 9 103 48 131 93 l24
38 3 830 c3 932 6 884 -70 949 -26 23 -59 39 -92 46 -36 8 -316 10 -931 8
l-880 -3 -78 -39 c-88 -44 -147 -103 -165 -164 -9 -29 -12 -250 -12 -816 0
-427 -3 -776 -6 -776 -3 0 -54 40 -112 88 -656 541 -1474 1051 -2237 1393
l-130 59 0 8537 0 8538 23 65 c76 210 247 351 457 378 100 12 14072 4 14133
-9z m-16354 -94 c465 -65 928 -315 1360 -735 71 -69 164 -164 207 -212 l79
-88 0 -7251 0 -7250 -117 103 c-148 131 -222 190 -453 363 -266 199 -370 285
-504 415 l-118 116 15 44 c8 25 18 95 22 155 3 61 8 126 10 145 2 19 6 91 10
160 3 69 8 159 11 200 22 338 22 833 -1 1070 -19 197 -39 363 -61 509 l-25
164 47 71 c26 39 113 161 192 271 372 513 465 651 592 883 122 223 209 458
258 692 24 114 26 146 26 370 1 215 -2 260 -22 365 -74 391 -224 712 -483
1035 -118 147 -391 419 -684 680 -317 283 -659 625 -799 800 -172 215 -321
451 -426 672 -302 640 -413 1388 -320 2143 26 213 88 509 151 728 31 104 31
108 14 127 -22 25 -47 26 -67 3 -25 -29 -123 -409 -157 -608 -80 -462 -91
-878 -35 -1310 80 -622 315 -1211 675 -1696 203 -272 431 -508 899 -931 325
-292 566 -532 682 -678 228 -287 377 -595 442 -920 34 -169 41 -239 40 -415
-1 -329 -69 -591 -244 -940 -100 -199 -202 -363 -393 -628 -76 -106 -199 -278
-275 -383 -114 -160 -138 -188 -144 -170 -3 11 -18 76 -32 143 -40 185 -100
398 -172 608 -36 105 -68 199 -70 210 -4 16 8 27 68 57 128 65 242 177 303
298 168 332 38 847 -298 1185 -140 140 -281 225 -578 348 -585 243 -1326 403
-1884 407 l-80 0 -81 108 c-115 151 -256 317 -519 612 -522 584 -726 858 -915
1224 -253 487 -367 962 -375 1561 -4 275 3 393 36 645 256 1960 1864 4047
3445 4471 246 66 523 86 748 54z m-11064 -2126 c949 -84 1911 -480 2815 -1157
154 -116 254 -194 254 -202 1 -3 -43 -5 -96 -5 -1146 0 -2213 -660 -2730
-1689 -167 -332 -271 -691 -314 -1076 -13 -118 -16 -438 -5 -545 43 -425 127
-739 291 -1082 303 -634 814 -1145 1446 -1447 397 -190 799 -286 1254 -300
127 -4 343 7 460 23 38 6 71 9 72 7 8 -8 54 -353 72 -536 32 -336 39 -486 51
-1165 14 -742 38 -990 135 -1360 158 -606 478 -1176 895 -1595 375 -378 725
-595 1586 -985 645 -293 993 -477 1318 -699 66 -44 124 -84 129 -87 6 -4 -12
-49 -43 -105 -93 -174 -202 -336 -330 -489 l-67 -81 -124 -23 c-366 -70 -898
-229 -1229 -369 -494 -208 -1061 -504 -1491 -778 -81 -52 -150 -94 -154 -94
-3 0 -81 60 -173 133 -194 155 -334 258 -522 384 -402 268 -680 429 -1580 913
-924 498 -1337 758 -1760 1110 -150 125 -448 419 -553 547 -360 437 -607 886
-780 1418 -230 708 -260 1374 -107 2410 61 419 111 778 126 915 23 212 28 766
9 945 -80 754 -379 1453 -924 2165 -170 222 -306 376 -712 805 -250 265 -342
369 -449 513 -186 249 -288 486 -321 748 -14 117 -7 342 16 466 111 613 556
1233 1231 1715 233 167 555 341 828 448 238 93 565 172 811 194 66 6 136 13
155 15 69 6 417 3 510 -5z m3304 -2163 c265 -68 511 -279 622 -535 69 -159 73
-197 81 -697 5 -247 7 -459 5 -471 -3 -23 -6 -23 -136 -23 l-133 0 -7 461 c-7
406 -10 471 -27 538 -56 223 -219 398 -437 468 -98 32 -252 36 -352 9 -177
-48 -337 -180 -415 -341 -56 -116 -65 -172 -65 -424 0 -207 -2 -226 -20 -256
-42 -67 -141 -80 -199 -26 -47 44 -54 90 -48 341 6 260 18 324 92 475 189 385
624 586 1039 481z m1186 -1760 c97 -34 198 -136 236 -239 26 -70 24 -133 -21
-747 -3 -36 -12 -168 -21 -295 -23 -353 -55 -501 -148 -692 -236 -485 -692
-770 -1254 -785 -123 -3 -123 -3 22 38 401 113 765 448 922 846 65 166 87 292
109 618 8 124 17 257 20 295 19 250 45 671 45 727 0 37 -5 79 -11 95 -19 51
-62 104 -106 130 -24 14 -43 27 -43 30 0 11 208 -7 250 -21z m-273 -82 c55
-27 88 -78 88 -138 0 -57 -14 -315 -20 -361 -4 -30 -6 -69 -25 -360 -6 -88
-12 -189 -15 -225 -3 -36 -10 -132 -16 -215 -6 -82 -19 -190 -29 -240 -142
-688 -805 -1153 -1499 -1051 -541 80 -974 475 -1107 1011 -23 95 -27 134 -29
280 -2 94 3 244 10 335 7 91 16 221 20 290 4 69 9 132 10 140 2 8 6 78 10 155
4 77 9 147 10 155 2 9 6 66 10 128 l8 112 1269 0 c1157 0 1273 -1 1305 -16z
m1083 -2859 c193 -795 525 -1481 1037 -2137 l83 -106 5 -94 c67 -1127 546
-2109 1408 -2884 l88 -79 11 -185 c18 -302 -10 -642 -78 -949 -27 -123 -105
-368 -148 -464 l-25 -57 -123 84 c-340 232 -665 405 -1323 703 -699 318 -1029
505 -1337 755 -346 282 -611 623 -839 1078 -127 253 -212 482 -273 730 -85
343 -111 628 -121 1325 -10 750 -37 1156 -100 1550 -24 147 -26 141 53 155
116 22 335 87 481 144 260 101 510 241 734 409 101 77 322 270 372 327 l20 22
13 -63 c8 -35 35 -154 62 -264z m5843 -2128 c139 -381 252 -865 312 -1337 45
-353 54 -515 50 -860 -3 -184 -7 -369 -10 -410 -3 -41 -12 -199 -20 -350 -20
-367 -26 -410 -54 -410 -9 0 -64 20 -123 44 -116 47 -239 124 -330 206 -129
115 -253 322 -301 504 -25 96 -42 116 -83 97 -33 -15 -31 -53 6 -171 96 -309
320 -563 615 -701 44 -20 99 -43 122 -50 23 -6 40 -16 37 -21 -13 -20 -93 -49
-297 -107 -119 -33 -239 -72 -265 -85 -60 -31 -117 -92 -151 -165 l-26 -56 5
-310 c2 -170 4 -494 4 -720 0 -374 -2 -423 -22 -555 -46 -293 -112 -467 -219
-576 -100 -101 -203 -141 -418 -163 -60 -6 -180 -25 -265 -41 -201 -38 -284
-48 -517 -61 -401 -21 -851 23 -1231 121 -431 112 -712 296 -712 467 0 37 10
54 103 170 240 301 390 569 503 898 130 377 179 707 173 1165 l-4 245 225 1
c282 0 511 27 745 85 258 66 460 231 565 463 37 82 52 144 90 368 55 332 124
623 226 957 l36 114 32 -75 c45 -103 132 -234 208 -311 103 -105 223 -173 356
-199 46 -9 55 -9 72 7 11 10 20 25 20 33 0 25 -31 52 -61 52 -43 0 -148 42
-211 83 -67 45 -158 139 -211 220 -48 72 -122 226 -139 290 -12 46 -11 49 24
120 34 70 35 76 26 128 -14 73 -5 224 16 274 49 116 152 155 263 99 86 -42
156 -129 272 -335 57 -101 106 -186 107 -188 8 -10 120 69 157 109 95 107 126
226 108 424 -26 288 -13 445 44 542 24 40 78 94 95 94 4 0 28 -56 53 -123z
m8643 -836 c23 -10 52 -34 65 -52 l24 -34 3 -605 2 -604 -35 -89 c-20 -49 -64
-152 -99 -230 -35 -78 -71 -163 -81 -189 l-18 -48 -741 -1 c-407 -1 -752 0
-766 1 -38 2 -95 44 -113 83 -15 32 -17 112 -17 852 0 879 -2 842 52 892 12
12 34 26 48 32 16 6 320 10 830 10 764 1 807 0 846 -18z m2753 -39 c14 -10 35
-34 46 -53 20 -33 20 -52 20 -854 l0 -820 -23 -37 c-13 -21 -40 -45 -66 -57
-41 -20 -57 -21 -522 -21 l-481 0 -11 51 c-12 51 -11 53 24 118 45 83 144 224
394 561 391 529 491 684 525 817 14 55 14 65 1 98 -41 96 -181 79 -377 -46
-150 -96 -304 -224 -694 -577 -208 -189 -213 -192 -336 -242 -42 -17 -128 -60
-190 -95 -62 -36 -114 -65 -116 -65 -2 0 -3 168 -3 373 0 329 2 384 20 473 25
131 31 216 19 283 -11 57 -2 77 46 104 22 13 1603 27 1664 15 19 -4 46 -15 60
-26z m-1915 -17 c62 -41 71 -150 27 -360 -16 -77 -62 -293 -101 -480 -81 -388
-106 -508 -126 -584 -17 -66 -4 -104 38 -109 20 -2 44 13 110 71 183 162 321
250 527 338 125 53 129 56 396 300 456 416 698 595 816 607 47 4 49 4 49 -21
0 -60 -148 -299 -387 -623 -76 -104 -196 -265 -264 -359 -286 -387 -329 -471
-299 -575 44 -148 55 -440 26 -659 -34 -258 -124 -557 -233 -776 -127 -253
-272 -411 -548 -595 -134 -89 -202 -148 -244 -211 -52 -78 -65 -123 -96 -332
-14 -94 -28 -173 -30 -175 -2 -2 -145 15 -317 38 -172 23 -326 43 -343 46 -16
2 -77 10 -135 18 -58 8 -143 20 -190 26 -47 6 -97 13 -111 16 l-26 5 19 92
c10 51 52 272 93 492 141 758 248 1253 350 1619 71 253 120 391 211 599 176
398 309 786 425 1237 28 107 62 217 77 244 30 55 92 112 137 126 41 13 118 5
149 -15z m16 -1093 l0 -188 -47 -36 c-26 -20 -49 -36 -50 -35 -2 3 90 447 94
447 2 0 3 -85 3 -188z m-1225 -1540 c-41 -162 -152 -712 -250 -1242 -56 -306
-94 -500 -99 -507 -1 -1 -93 11 -206 27 -113 16 -206 27 -208 26 -1 -2 -8 -34
-15 -72 l-12 -69 -232 0 c-219 0 -233 1 -260 21 -15 11 -38 36 -50 54 l-23 33
0 819 c0 791 1 820 19 857 22 42 52 65 100 78 17 4 304 7 637 5 l606 -2 -7
-28z m-7675 -238 c47 -39 200 -158 340 -264 305 -231 393 -303 528 -434 l102
-99 0 -848 0 -847 -171 69 c-295 120 -711 263 -988 342 -71 20 -86 28 -92 48
-4 13 -12 114 -18 224 -40 693 -118 1101 -298 1555 -36 91 -83 200 -105 244
-22 43 -36 82 -31 86 4 4 82 29 173 54 160 46 227 74 262 113 17 18 20 15 115
-77 54 -52 136 -127 183 -166z m10826 225 c26 -12 53 -36 66 -57 l23 -37 3
-790 c2 -548 0 -806 -8 -841 -11 -51 -40 -89 -87 -113 -16 -8 -246 -11 -843
-11 -878 0 -848 -2 -893 48 -40 44 -46 86 -47 343 l0 247 73 54 c210 159 353
341 468 599 59 131 128 336 160 476 l24 103 509 0 c495 0 511 -1 552 -21z
m-11603 -301 c232 -510 327 -925 377 -1653 6 -82 13 -183 16 -222 3 -40 4 -73
1 -73 -3 0 -103 24 -224 53 -120 30 -271 65 -336 78 l-118 24 5 30 c41 221 60
526 52 825 -3 124 -9 369 -13 545 -6 344 -4 362 43 426 28 38 99 89 124 89 12
0 33 -35 73 -122z m6203 -2349 c26 -12 53 -36 66 -57 l23 -37 3 -810 2 -810
-22 -45 c-13 -25 -38 -55 -57 -67 l-34 -23 -821 0 -821 1 -60 54 -60 55 0 822
0 823 23 37 c13 20 41 45 65 57 42 21 50 21 846 21 793 0 805 0 847 -21z
m1280 4 c-3 -10 -24 -83 -46 -164 -80 -292 -202 -641 -296 -848 l-44 -96 0
503 c0 554 -2 537 62 585 44 33 52 34 201 36 118 1 128 0 123 -16z m-19091
-1894 c66 -132 125 -244 130 -249 6 -4 105 -9 220 -11 l210 -4 127 230 c70
127 131 236 136 244 7 12 42 5 215 -44 114 -32 211 -61 215 -64 4 -4 2 -96 -4
-206 -7 -110 -13 -237 -13 -282 l-1 -81 85 -46 c47 -25 124 -70 171 -101 46
-30 93 -55 104 -55 10 0 123 63 250 140 l230 141 153 -157 c83 -87 151 -163
151 -169 -1 -6 -67 -112 -148 -235 -80 -122 -146 -228 -146 -235 0 -8 22 -49
49 -92 27 -44 70 -120 95 -170 25 -51 51 -95 58 -99 7 -5 45 -7 85 -6 l72 3
-114 -233 c-172 -352 -280 -615 -407 -988 -133 -392 -254 -849 -330 -1248 -30
-156 -35 -172 -52 -168 -11 3 -56 -18 -115 -53 -53 -32 -134 -77 -180 -100
l-84 -43 5 -282 5 -283 -214 -53 c-124 -31 -218 -49 -223 -44 -4 5 -58 110
-120 234 -62 124 -119 233 -128 242 -13 16 -36 18 -194 17 -99 0 -182 2 -185
4 -2 3 -16 2 -30 -2 -21 -6 -49 -50 -158 -246 -72 -132 -136 -240 -141 -239
-5 0 -103 27 -217 60 l-208 59 5 70 c14 180 28 475 23 488 -3 8 -44 35 -91 60
-48 25 -125 71 -172 102 -46 30 -90 55 -97 55 -7 0 -115 -63 -242 -140 -126
-77 -232 -140 -236 -140 -16 0 -310 313 -305 326 3 7 68 110 145 227 77 118
143 221 146 229 3 7 -18 52 -46 98 -28 47 -72 126 -96 175 -25 50 -51 94 -57
98 -6 4 -135 5 -286 1 l-275 -6 -54 216 c-30 119 -52 218 -50 220 2 2 109 57
237 121 128 64 239 123 246 131 11 10 14 50 14 165 0 83 3 172 7 198 5 37 3
52 -9 63 -8 9 -77 50 -153 91 -76 41 -167 92 -203 112 -36 19 -80 43 -98 52
-18 9 -31 22 -28 27 2 6 30 103 62 215 l59 204 170 -8 c93 -3 184 -8 200 -10
62 -8 181 -9 192 -2 6 4 30 42 54 85 23 42 68 118 100 168 33 50 59 97 59 104
0 7 -20 45 -43 84 -24 39 -87 142 -140 229 -54 87 -97 162 -97 166 0 4 72 76
160 160 l160 153 223 -148 c122 -81 232 -149 243 -152 13 -2 42 10 75 32 30
19 108 64 174 98 l120 63 0 284 0 285 205 52 c113 29 210 53 215 53 6 1 64
-107 130 -240z m22506 -748 c18 -22 19 -47 19 -576 0 -529 -1 -554 -19 -576
l-19 -24 -806 -5 c-443 -3 -810 -4 -814 -2 -5 1 13 72 39 156 89 288 171 645
216 939 l18 117 673 -2 674 -3 19 -24z m402 -3429 c81 -33 166 -114 203 -194
l29 -63 3 -2918 c2 -3227 8 -2955 -61 -2997 -31 -20 -65 -20 -1850 -20 -1320
0 -1824 3 -1840 11 -12 6 -30 21 -39 33 -17 20 -18 186 -18 2874 l0 2853 25
76 c61 182 212 317 398 358 51 11 337 13 1577 12 l1515 -2 58 -23z m-18103
-977 c12 -14 10 -166 -5 -390 -2 -33 -7 -114 -10 -180 -8 -163 -43 -736 -50
-810 -2 -33 -7 -94 -10 -135 -53 -757 -150 -1788 -230 -2450 -20 -166 -65
-527 -70 -565 -2 -16 -16 -115 -30 -220 -148 -1093 -335 -2098 -530 -2845 -72
-278 -198 -783 -250 -1004 -30 -125 -56 -230 -59 -233 -2 -3 -111 66 -242 151
-131 86 -244 156 -252 156 -8 0 -57 -27 -108 -60 -105 -67 -288 -168 -408
-223 l-78 -37 6 -423 c4 -232 9 -452 12 -488 l6 -66 -391 -97 c-215 -53 -396
-96 -403 -96 -7 0 -110 193 -228 428 l-215 427 -190 1 c-104 1 -251 5 -325 9
-170 10 -172 10 -184 -12 -6 -10 -111 -200 -234 -423 -174 -317 -226 -404
-240 -402 -48 10 -758 215 -766 222 -4 5 4 216 19 479 15 259 25 478 22 486
-4 8 -37 30 -75 49 -109 55 -256 142 -385 227 l-118 79 -32 -16 c-17 -9 -204
-122 -415 -250 -212 -129 -386 -234 -388 -234 -8 0 -564 583 -564 592 0 6 115
185 255 398 140 214 258 396 261 405 4 10 -12 45 -41 93 -88 141 -147 246
-206 366 -33 66 -65 126 -71 134 -11 12 -58 14 -333 8 -176 -4 -393 -9 -482
-12 -90 -3 -163 -4 -163 -1 0 3 -42 175 -94 384 -52 208 -96 386 -98 396 -2
16 73 57 427 235 l430 217 1 225 c0 124 4 277 8 340 6 92 5 118 -6 127 -7 6
-105 62 -218 123 -501 275 -605 332 -612 338 -4 4 43 183 105 397 l112 390
110 -3 c61 -1 135 -4 165 -7 178 -14 679 -38 693 -32 9 3 35 43 58 89 51 101
175 308 241 402 26 38 48 78 48 89 0 11 -26 63 -59 116 -227 371 -423 696
-427 706 -5 12 570 575 586 575 5 0 127 -78 272 -173 464 -306 528 -347 543
-347 8 0 52 24 97 53 108 69 248 148 372 208 54 27 105 54 114 61 15 13 15 45
-4 754 l-6 221 396 99 c254 63 399 95 404 89 5 -6 103 -194 217 -420 114 -225
212 -416 217 -422 8 -9 73 -13 252 -13 132 0 279 -4 326 -8 49 -5 92 -5 103 0
15 8 17 2 17 -59 0 -73 2 -95 25 -388 24 -293 85 -803 111 -927 5 -26 4 -27
-28 -18 -121 34 -283 52 -483 55 -305 5 -520 -27 -785 -115 -365 -122 -656
-303 -936 -584 -351 -352 -563 -765 -655 -1277 -28 -160 -36 -517 -14 -679 56
-415 213 -800 462 -1132 91 -122 325 -360 438 -445 162 -122 323 -217 490
-291 181 -79 422 -150 593 -173 43 -5 88 -12 102 -15 14 -3 95 -8 181 -11 562
-22 1117 164 1569 524 111 88 279 257 359 361 l64 81 40 -57 c84 -120 223
-297 326 -414 109 -124 351 -365 428 -426 37 -29 42 -30 47 -15 22 73 134 530
175 713 165 745 324 1682 436 2570 9 69 18 136 20 150 2 14 7 50 10 80 3 30
12 105 20 165 17 137 17 142 60 525 19 173 46 434 60 580 14 146 27 285 30
310 2 25 6 70 9 100 5 56 12 129 21 230 5 62 62 794 70 910 3 41 7 107 10 145
3 39 7 104 10 145 8 121 24 376 30 500 4 63 8 135 10 160 2 25 6 124 10 220 6
191 11 238 27 258 14 17 53 15 68 -3z m-3565 -3195 c86 -10 202 -31 276 -51
35 -9 36 -10 48 -81 143 -832 393 -1684 703 -2392 127 -289 324 -664 470 -896
105 -165 101 -136 33 -226 -82 -110 -300 -325 -422 -417 -519 -387 -1154 -536
-1793 -421 -47 8 -132 29 -189 45 -626 179 -1126 592 -1416 1169 -437 869
-267 1927 419 2614 343 344 822 585 1281 646 50 6 97 13 105 15 39 8 405 4
485 -5z"/>
<path d="M28082 43370 c-114 -41 -204 -133 -241 -247 l-21 -63 0 -3038 c0
-3363 -5 -3102 65 -3208 63 -97 158 -156 276 -173 39 -6 2035 -9 5174 -8 5007
2 5111 2 5160 21 137 52 229 156 261 295 18 76 21 6039 3 6123 -19 85 -45 136
-104 197 -37 39 -77 68 -118 87 l-62 29 -5170 2 c-5066 2 -5171 2 -5223 -17z
m10420 -103 c61 -30 105 -74 140 -140 l23 -42 0 -3070 0 -3070 -23 -42 c-35
-66 -79 -110 -140 -140 l-57 -28 -5155 0 -5155 0 -50 27 c-64 34 -118 90 -145
150 l-20 46 0 3057 c0 2975 1 3058 19 3100 36 83 105 142 196 171 32 10 1054
12 5175 11 l5135 -2 57 -28z"/>
<path d="M36398 40360 c-117 -20 -200 -63 -279 -144 -183 -186 -183 -489 1
-675 234 -237 631 -176 779 121 40 79 55 156 48 253 -6 100 -35 178 -95 258
-103 135 -296 214 -454 187z"/>
<path d="M34852 40304 c-126 -34 -244 -121 -305 -225 -33 -58 -67 -179 -67
-241 0 -219 153 -417 365 -473 308 -80 606 149 605 464 -1 140 -38 236 -132
337 -119 127 -304 182 -466 138z"/>
<path d="M33360 40288 c-30 -4 -88 -24 -129 -44 -202 -99 -312 -333 -256 -547
64 -248 296 -405 541 -367 142 22 291 124 356 246 103 190 67 428 -87 579
-112 110 -266 158 -425 133z"/>
<path d="M31760 40251 c-157 -51 -268 -161 -320 -317 -41 -123 -24 -282 43
-396 38 -65 138 -155 209 -188 109 -51 213 -62 322 -34 414 107 508 645 152
876 -117 76 -281 100 -406 59z"/>
<path d="M30260 40234 c-227 -60 -377 -267 -363 -498 24 -413 523 -608 818
-321 198 192 198 509 0 699 -119 114 -300 161 -455 120z"/>
<path d="M28336 35730 c-95 -47 -118 -68 -151 -134 l-25 -50 0 -829 c0 -607 3
-840 12 -869 16 -53 78 -121 136 -150 l47 -23 835 0 835 0 47 23 c26 13 62 41
81 61 21 23 50 42 78 50 59 17 104 53 132 104 l22 42 2 808 c2 557 0 822 -8
851 -14 56 -62 114 -113 137 -39 18 -87 19 -946 19 l-905 0 -79 -40z m1722
-117 c15 -11 35 -34 45 -50 16 -28 17 -86 17 -858 0 -816 0 -828 -20 -860 -12
-19 -40 -43 -64 -54 -42 -21 -53 -21 -847 -21 -762 0 -806 1 -845 19 -25 12
-50 33 -65 57 l-24 39 0 826 0 826 28 36 c15 20 38 42 50 49 17 10 202 14 817
18 437 3 814 2 838 -1 24 -3 55 -15 70 -26z"/>
<path d="M31015 35732 c-96 -47 -147 -99 -169 -173 -23 -77 -24 -1629 -1
-1705 20 -67 64 -117 133 -151 l57 -28 830 0 c825 0 830 0 876 21 25 12 63 39
85 61 27 28 51 43 79 48 58 10 111 43 142 88 l28 40 3 841 2 841 -22 45 c-14
26 -41 57 -66 75 l-44 30 -927 3 -926 2 -80 -38z m1705 -113 c21 -12 47 -38
59 -59 21 -38 21 -41 21 -849 0 -898 3 -855 -66 -907 l-37 -29 -833 0 c-829 0
-833 0 -861 21 -15 11 -38 36 -50 54 l-23 33 0 819 c0 914 -4 864 69 914 l36
24 823 0 c821 0 824 0 862 -21z"/>
<path d="M33800 35735 c-57 -21 -133 -65 -164 -93 -16 -15 -39 -49 -52 -77
l-24 -50 0 -836 0 -835 26 -52 c14 -29 42 -66 62 -82 74 -61 57 -60 946 -60
919 0 869 -4 955 80 25 25 64 53 86 63 51 23 81 52 108 102 22 40 22 43 25
834 2 568 0 810 -9 849 -13 67 -72 135 -134 157 -57 20 -1772 20 -1825 0z
m1636 -136 c26 -12 53 -36 66 -57 l23 -37 0 -820 c0 -802 0 -821 -20 -854 -25
-42 -63 -71 -104 -80 -18 -3 -396 -4 -841 -1 -802 5 -809 5 -837 26 -15 12
-37 36 -48 55 -20 33 -20 52 -20 854 l0 820 23 37 c13 20 41 45 65 57 42 21
50 21 846 21 793 0 805 0 847 -21z"/>
<path d="M36455 35736 c-132 -53 -210 -117 -233 -194 -9 -29 -12 -262 -12
-869 l0 -829 26 -52 c14 -29 42 -65 62 -82 76 -62 46 -61 958 -58 801 3 830 4
869 23 21 10 57 37 78 59 21 22 57 48 80 59 53 23 83 51 110 102 l22 40 0 820
c0 648 -3 828 -13 857 -17 47 -89 113 -138 127 -58 16 -1769 14 -1809 -3z
m1631 -137 c26 -12 53 -36 66 -57 l23 -37 0 -820 c0 -809 0 -820 -21 -855 -11
-19 -35 -45 -54 -57 l-33 -23 -824 0 c-913 0 -856 -4 -910 67 l-28 36 0 826 0
826 23 37 c13 20 41 45 65 57 42 21 50 21 846 21 793 0 805 0 847 -21z"/>
<path d="M28425 33093 c-45 -11 -147 -65 -181 -95 -21 -18 -48 -55 -60 -83
l-24 -50 0 -836 0 -835 26 -52 c14 -29 42 -65 62 -82 76 -62 46 -61 958 -58
802 3 830 4 869 23 22 11 58 38 80 61 27 27 52 44 76 48 22 4 55 23 83 47 79
70 76 29 73 953 l-2 811 -28 47 c-18 31 -44 57 -75 75 l-47 28 -895 1 c-492 1
-904 0 -915 -3z m1609 -143 c23 -11 51 -35 64 -53 l22 -33 0 -830 c0 -810 -1
-830 -20 -862 -11 -18 -34 -41 -52 -52 -32 -19 -52 -20 -856 -20 -912 0 -855
-4 -909 67 l-28 36 0 826 c0 811 0 827 20 861 12 21 39 44 65 58 l44 22 805 0
c782 0 806 -1 845 -20z"/>
<path d="M36397 33036 c-98 -50 -131 -78 -161 -138 l-26 -52 0 -829 c0 -607 3
-840 12 -869 16 -53 78 -121 136 -150 l47 -23 835 0 835 0 47 23 c26 13 62 40
80 60 19 21 60 50 92 66 68 33 102 78 116 157 7 35 9 340 8 839 l-3 785 -25
50 c-16 32 -41 61 -68 80 l-44 30 -906 3 -907 2 -68 -34z m1701 -116 c18 -11
41 -34 52 -52 19 -32 20 -52 20 -862 0 -816 0 -829 -20 -862 -12 -18 -40 -42
-64 -53 -42 -21 -54 -21 -847 -21 l-805 0 -44 23 c-31 15 -51 35 -67 66 l-23
44 0 801 0 802 23 44 c12 25 37 55 56 67 l34 23 826 0 c807 0 827 -1 859 -20z"/>
<path d="M28405 30388 c-91 -40 -130 -71 -163 -127 l-27 -46 -3 -843 c-2 -842
-2 -842 19 -892 12 -27 39 -66 61 -86 82 -74 19 -69 948 -69 l835 0 47 23 c26
13 63 41 82 63 20 21 44 39 53 39 30 1 96 36 125 66 60 65 58 27 58 922 l0
818 -25 51 c-16 32 -41 61 -67 79 l-41 29 -916 2 -916 3 -70 -32z m1696 -121
c19 -12 44 -42 56 -67 l23 -44 -3 -811 -2 -810 -23 -37 c-13 -21 -40 -45 -66
-57 -42 -21 -53 -21 -847 -21 -762 0 -806 1 -845 19 -25 12 -50 33 -65 57
l-24 39 0 825 0 825 24 33 c13 19 38 43 55 53 30 18 64 19 857 19 l826 0 34
-23z"/>
<path d="M36520 30390 c-51 -15 -155 -71 -183 -98 -16 -15 -40 -49 -53 -77
l-24 -50 0 -836 0 -835 26 -52 c14 -29 42 -65 62 -82 75 -62 46 -60 942 -60
928 0 878 -4 960 80 26 26 57 51 71 55 44 13 95 55 120 98 l24 42 0 835 0 835
-25 45 c-28 49 -73 84 -129 100 -43 12 -1753 12 -1791 0z m1616 -141 c26 -12
53 -36 66 -57 l23 -37 0 -820 c0 -802 0 -821 -20 -854 -11 -19 -33 -43 -48
-55 -28 -21 -35 -21 -820 -26 -436 -3 -813 -3 -839 0 -55 7 -95 33 -123 81
-20 33 -20 52 -20 854 l0 820 23 37 c13 20 41 45 65 57 42 21 50 21 846 21
793 0 805 0 847 -21z"/>
<path d="M33815 27692 c-85 -38 -127 -66 -153 -102 -53 -71 -52 -50 -52 -933
0 -599 3 -830 12 -859 16 -53 78 -121 136 -150 l47 -23 835 0 835 0 47 23 c26
13 62 40 80 60 19 21 55 46 81 56 55 21 109 78 125 135 16 51 17 1618 1 1674
-13 49 -63 105 -114 128 -38 18 -90 19 -930 19 l-890 -1 -60 -27z m1668 -113
c37 -16 74 -62 87 -109 7 -26 10 -303 8 -837 l-3 -798 -24 -39 c-15 -24 -40
-45 -65 -57 -39 -18 -83 -19 -846 -19 -763 0 -807 1 -846 19 -25 12 -50 33
-65 57 l-24 39 0 820 c0 802 0 821 20 854 28 47 67 74 117 80 86 12 1611 2
1641 -10z"/>
<path d="M36465 27692 c-121 -54 -172 -103 -195 -183 -15 -52 -13 -1661 2
-1711 16 -53 78 -121 136 -150 l47 -23 835 0 835 0 47 23 c26 13 64 42 84 64
21 24 51 44 72 50 48 13 114 82 130 135 16 53 17 1618 1 1676 -13 49 -63 105
-114 128 -38 18 -90 19 -930 19 l-890 -1 -60 -27z m1668 -113 c37 -16 74 -62
87 -109 7 -26 10 -303 8 -837 l-3 -798 -24 -39 c-15 -24 -40 -45 -65 -57 -39
-18 -83 -19 -846 -19 -763 0 -807 1 -846 19 -25 12 -50 33 -65 57 l-24 39 0
820 c0 802 0 821 20 854 25 42 63 71 104 80 59 12 1623 2 1654 -10z"/>
<path d="M15725 38307 c-210 -55 -354 -269 -316 -470 26 -137 118 -259 237
-314 50 -23 55 -27 50 -51 -3 -15 -10 -128 -17 -252 -11 -208 -11 -228 5 -258
11 -21 31 -39 54 -49 32 -13 42 -14 76 -2 75 26 78 38 97 325 9 140 19 256 20
258 2 1 20 9 39 16 108 41 210 146 247 253 24 70 24 204 0 274 -38 110 -139
213 -250 255 -65 25 -177 32 -242 15z"/>
<path d="M12490 24703 c-95 -7 -236 -35 -329 -65 -491 -157 -845 -551 -952
-1061 -29 -136 -32 -379 -6 -517 108 -577 556 -1030 1125 -1136 115 -22 344
-26 452 -9 581 91 1025 494 1164 1055 81 329 41 662 -114 968 -232 456 -682
742 -1200 765 -52 2 -115 2 -140 0z m362 -123 c432 -91 787 -393 947 -805 133
-341 116 -725 -46 -1050 -65 -129 -124 -215 -221 -317 -202 -211 -459 -349
-740 -394 -712 -114 -1378 368 -1497 1085 -25 147 -16 366 19 509 132 529 563
917 1102 991 104 15 323 5 436 -19z"/>
<path d="M32793 20441 c-23 -11 -59 -38 -81 -61 -74 -75 -72 -58 -72 -754 0
-603 1 -622 21 -666 25 -55 71 -105 124 -133 40 -22 43 -22 685 -22 l645 0 41
22 c54 29 117 101 132 151 16 52 17 1249 2 1304 -16 57 -69 119 -129 150 l-53
28 -637 0 c-602 0 -638 -1 -678 -19z"/>
<path d="M42656 37524 c-9 -8 -16 -22 -16 -31 0 -9 41 -58 92 -109 93 -96 126
-112 156 -82 26 26 11 54 -81 146 -95 94 -120 107 -151 76z"/>
<path d="M43342 37446 c-51 -51 -92 -99 -92 -105 0 -28 22 -51 49 -51 21 0 47
20 119 94 51 51 92 100 92 109 0 9 -7 23 -16 31 -32 32 -57 19 -152 -78z"/>
<path d="M42835 36930 c-28 -11 -195 -184 -195 -202 0 -20 32 -48 56 -48 11 0
59 40 113 94 71 72 92 98 89 116 -4 30 -37 51 -63 40z"/>
<path d="M43260 36911 c-5 -11 -10 -25 -10 -32 0 -6 41 -54 92 -105 72 -74 98
-94 119 -94 27 0 49 23 49 51 0 6 -41 54 -92 105 -72 74 -98 94 -119 94 -18 0
-32 -7 -39 -19z"/>
<path d="M9952 30953 c-32 -28 -116 -226 -108 -256 6 -26 40 -41 63 -28 13 7
101 187 118 240 4 13 -1 27 -14 40 -26 26 -33 26 -59 4z"/>
<path d="M9232 30684 c-26 -18 -28 -45 -4 -67 23 -20 217 -107 241 -107 25 0
43 24 39 52 -2 18 -25 34 -109 74 -134 65 -140 67 -167 48z"/>
<path d="M10005 30316 c-12 -18 -14 -30 -6 -43 9 -19 227 -123 256 -123 7 0
20 9 28 21 28 40 11 58 -111 115 -63 30 -123 54 -133 54 -10 0 -26 -11 -34
-24z"/>
<path d="M9554 30103 c-72 -159 -78 -175 -68 -191 16 -24 39 -36 58 -29 19 7
126 225 126 255 0 26 -20 42 -52 42 -26 0 -32 -7 -64 -77z"/>
<path d="M11505 28007 c-68 -23 -100 -44 -152 -100 -138 -151 -101 -401 74
-504 169 -99 387 -33 473 142 21 43 25 64 25 145 0 83 -4 101 -27 145 -32 62
-104 130 -166 158 -58 25 -171 32 -227 14z m203 -109 c55 -26 99 -80 118 -146
27 -91 -1 -181 -76 -244 -99 -85 -235 -76 -324 23 -75 83 -85 190 -26 282 66
105 193 140 308 85z"/>
<path d="M29542 14342 l-163 -45 5 -66 c3 -36 8 -118 11 -182 l6 -117 -73 -40
c-40 -23 -86 -50 -102 -60 l-28 -20 -150 95 c-83 51 -156 93 -163 91 -6 -2
-62 -56 -124 -120 l-112 -117 97 -152 98 -152 -19 -31 c-10 -17 -36 -63 -57
-102 l-38 -72 -184 5 -184 6 -11 -39 c-5 -22 -24 -91 -40 -154 -17 -63 -31
-120 -31 -126 0 -6 72 -49 160 -95 l160 -83 0 -117 0 -118 -160 -86 c-153 -83
-160 -87 -154 -112 4 -14 24 -87 44 -162 l37 -136 114 3 c63 1 146 5 186 7 64
5 72 3 78 -14 3 -10 28 -56 55 -102 28 -45 50 -84 50 -86 0 -1 -43 -71 -95
-155 l-95 -153 117 -117 c65 -65 121 -118 126 -118 4 0 75 43 157 96 l150 96
57 -35 c32 -19 78 -45 102 -57 l44 -22 -6 -184 -6 -184 52 -14 c29 -8 102 -28
164 -44 l112 -30 85 161 84 162 119 2 118 3 77 -148 c43 -81 82 -153 87 -161
8 -12 35 -7 171 30 l162 44 -7 188 c-5 118 -4 187 2 187 6 0 51 25 101 55 l92
55 143 -89 c79 -50 150 -93 158 -96 9 -3 57 38 132 113 l118 119 -99 155 -100
156 38 61 c20 34 45 80 56 102 l18 41 186 -7 185 -7 39 153 c22 85 41 159 43
165 3 7 -67 49 -156 95 l-161 84 0 80 c-1 44 -3 96 -6 117 l-5 36 128 68 c70
37 144 77 164 89 l36 20 -43 159 c-24 87 -45 161 -48 163 -3 3 -86 2 -184 -3
l-180 -9 -23 45 c-13 24 -40 70 -60 101 l-36 56 93 149 c52 82 94 154 94 159
0 6 -53 63 -117 127 l-118 117 -155 -99 -155 -99 -30 20 c-16 10 -63 38 -103
60 -71 40 -74 43 -68 73 3 17 6 98 8 181 l2 149 -160 43 c-87 23 -161 42 -164
43 -3 0 -43 -73 -89 -163 l-83 -162 -117 0 -117 -1 -88 163 c-48 90 -88 162
-89 162 -1 -1 -75 -22 -165 -47z m646 -838 c330 -68 599 -338 667 -669 18 -90
21 -248 5 -335 -52 -288 -255 -536 -530 -647 -120 -49 -172 -58 -325 -58 -115
1 -154 5 -220 23 -366 105 -617 417 -642 797 -17 273 119 564 340 731 107 80
258 145 387 167 64 11 247 6 318 -9z"/>
<path d="M37390 14280 c-411 -38 -427 -40 -500 -46 -133 -10 -150 -14 -161
-38 -9 -19 20 -84 199 -447 125 -255 216 -428 226 -432 10 -4 26 -3 35 3 14 7
308 450 609 918 13 19 12 25 -2 47 -21 31 -20 31 -406 -5z m270 -75 c0 -5 -39
-65 -254 -395 -67 -102 -144 -220 -171 -262 -28 -43 -53 -77 -57 -75 -14 4
-329 650 -321 657 4 4 124 17 266 29 142 12 277 24 300 27 23 3 78 8 122 12
44 4 88 8 98 9 9 1 17 0 17 -2z"/>
<path d="M36175 13099 c-519 -383 -1270 -878 -1925 -1271 -901 -541 -1882
-1048 -2745 -1421 -1246 -538 -2372 -874 -3444 -1027 -79 -11 -150 -25 -158
-31 -16 -14 -17 -51 -1 -67 18 -18 60 -15 306 23 1798 279 3910 1129 6137
2468 595 358 1170 735 1685 1103 297 213 355 257 358 280 4 25 -22 54 -46 54
-9 -1 -84 -51 -167 -111z"/>
<path d="M34850 11357 c-14 -8 -68 -40 -120 -72 -623 -380 -1629 -909 -2420
-1272 -1600 -734 -3007 -1177 -4220 -1328 -91 -11 -248 -26 -379 -35 -79 -5
-149 -15 -157 -21 -17 -14 -18 -51 -2 -67 39 -39 709 35 1213 134 1142 226
2495 705 3941 1397 700 335 1433 727 2029 1084 162 97 180 111 183 138 3 19
-2 33 -14 42 -22 16 -23 16 -54 0z"/>
<path d="M27132 9466 c-133 -44 -232 -178 -232 -317 0 -117 80 -243 188 -296
77 -38 200 -40 277 -5 63 29 129 92 163 157 24 44 27 61 27 145 0 84 -3 101
-27 145 -34 65 -101 129 -163 156 -62 28 -172 35 -233 15z m229 -121 c192
-126 99 -427 -131 -426 -241 1 -319 326 -106 439 70 36 172 31 237 -13z"/>
</g>
</svg> -->


                        <svg xmlns="http://www.w3.org/2000/svg" width="524.67004" height="531.39694" className="w-full" viewBox="0 0 524.67004 531.39694">
                            <polygon points="117.67523 88.74385 113.67523 109.74385 133.61763 115.36589 131.1398 92.94604 117.67523 88.74385" fill="#a0616a" />
                            <path d="M0,523.44458c0,.66003,.53003,1.19,1.19006,1.19H523.48004c.65997,0,1.19-.52997,1.19-1.19,0-.65997-.53003-1.19-1.19-1.19H1.19006c-.66003,0-1.19006,.53003-1.19006,1.19Z" fill="#3f3d56" />
                            <g>
                                <path d="M356.03772,238.30865H150.36885c-23.32296,0-42.22995,18.90698-42.22995,42.22995v199.43289c0,23.32291,18.90695,42.22986,42.22986,42.22986h205.66896c23.32297,0,42.22995-18.90698,42.22995-42.22995v-199.43283c0-23.32297-18.90698-42.22995-42.22995-42.22995v.00003Z" fill="#fff" />
                                <path d="M356.03781,523.20093H150.36888c-23.83691,0-43.22998-19.39258-43.22998-43.22949v-199.43262c0-23.83691,19.39307-43.22998,43.22998-43.22998h205.66896c23.83691,0,43.22998,19.39307,43.22998,43.22998v199.43262c0,23.83691-19.39307,43.22949-43.22998,43.22949h-.00003ZM150.36888,239.30882c-22.73438,0-41.22998,18.49562-41.22998,41.23v199.43262c0,22.73438,18.49561,41.22949,41.22998,41.22949h205.66896c22.73438,0,41.22998-18.49512,41.22998-41.22949v-199.43262c0-22.73438-18.49561-41.22998-41.22998-41.22998H150.36888v-.00002Z" fill="#3f3d56" />
                                <path d="M370.93558,324.77005h-82.66788c-3.50635,0-6.35907-2.85272-6.35907-6.35907s2.85272-6.35907,6.35907-6.35907h82.66785c3.50635,0,6.35907,2.85272,6.35907,6.35907s-2.85272,6.35907-6.35907,6.35907h.00003Z" fill="#000000" />
                                <path d="M293.3822,374.77737h-80.3571c-2.02586,0-3.67427-1.64841-3.67427-3.67429s1.64841-3.67352,3.67427-3.67352h80.3571c2.02588,0,3.67352,1.64764,3.67352,3.67352s-1.64764,3.67426-3.67352,3.67426v.00003Z" fill="#000000" />
                                <rect x="133.61763" y="251.96666" width="46.49806" height="5.96129" rx=".31021" ry=".31021" fill="#000000" />
                                <circle cx="334.3363" cy="253.15892" r="4.76904" fill="#3f3d56" />
                                <circle cx="347.45114" cy="253.15892" r="4.76904" fill="#3f3d56" />
                                <circle cx="360.56598" cy="253.15892" r="4.76904" fill="#3f3d56" />
                                <path d="M149.86826,394.44458c0,.66003,.53003,1.19,1.19006,1.19h204.28998c.65997,0,1.19-.52997,1.19-1.19,0-.65997-.53003-1.19-1.19-1.19H151.05832c-.66003,0-1.19006,.53003-1.19006,1.19Z" fill="#3f3d56" />
                            </g>
                            <g>
                                <path id="uuid-d0b76542-8f08-4363-846d-0cc3b89caf22-176" d="M212.17296,100.91704c4.34915-3.59367,9.72871-4.26258,12.0153-1.49438,2.28658,2.7682,.6142,7.92447-3.73698,11.51883-1.71841,1.45964-3.76141,2.48653-5.95805,2.99474l-18.6198,14.99379-6.8499-8.8877,19.08307-13.83763c.91373-2.06202,2.30807-3.87516,4.06638-5.28765h-.00002Z" fill="#a0616a" />
                                <path d="M104.55261,134.74706c-.00944-.66307-.00322-6.44713,4.27885-10.10294,4.91893-4.1995,11.85979-2.49972,14.29424-1.90355,5.62363,1.37718,6.08482,3.78959,11.36601,6.2683,9.88049,4.63744-2.4994,2.26379,3.37981,.77675,2.03505-.51472,31.31216-2.54515,38.59979-7.03056,14.17354-8.72353,23.83086-14.01349,23.83086-14.01349l6.31322,12.62642s-9.12891,12.69357-21.97707,22.09717c-13.17929,9.64592-19.76894,14.46893-29.78342,16.3324-.8624,.16048-22.0723,3.78188-39.15515-8.98085-3.89654-2.91112-11.03588-8.24498-11.14714-16.06966v.00002Z" fill="#e6e6e6" />
                                <circle cx="124.1365" cy="80.64255" r="21.99265" fill="#a0616a" />
                                <g>
                                    <polygon points="296.37473 228.39777 273.72531 205.21346 262.03351 217.40936 278.90814 239.63901 295.64612 241.55336 296.37473 228.39777" fill="#a0616a" />
                                    <path d="M167.04568,184.92191c1.32477,.11008,5.53464,.95349,9.55849-1.26038,2.74614-1.51086,4.15456-3.75739,4.63022-4.4718,5.90138-8.86325,28.55225-22.68449,48.88084-23.53503,4.60358-.1926,7.63374,.34082,10.38795,1.77647,3.90536,2.03574,5.46449,4.95183,10.4203,11.78291,2.71086,3.73663,5.71039,7.25691,8.45392,10.96962,16.06195,21.73621,22.15103,23.4426,21.52869,30.41109-.69049,7.73164-9.02899,15.06697-14.57111,14.22018-2.26965-.34679-3.14862-1.92497-6.181-5.1199-8.89113-9.36768-12.56963-7.63699-18.89978-14.81212-7.39056-8.37709-6.42307-15.32303-10.27892-15.59132-3.57571-.24879-5.09525,5.67668-12.72906,13.54826-3.49306,3.60187-5.98048,5.2542-13.55853,10.51141-29.51064,20.4729-29.98163,21.91164-35.93719,23.54443-2.60568,.71437-21.09953,5.78468-27.68759-2.28407-10.30952-12.62669,14.04588-50.68156,25.98276-49.68979l.00002,.00003Z" fill="#2f2e41" />
                                    <path d="M289.45026,233.63687c1.66577-.74799,3.61353-1.62257,4.24017-3.63382,.42404-1.3609,.17984-3.03893-.69662-4.19846-1.01126-1.33788-2.50809-1.51421-2.44754-1.75092,.09222-.36043,3.63171-.21954,7.51718,1.15395,.73322,.25919,4.0549,1.47292,8.28021,4.77161,3.38531,2.64291,2.92975,3.17274,5.05261,4.69666,6.51636,4.67783,12.62817,.99107,16.15421,5.37796,1.36081,1.69307,1.94122,4.09685,1.36853,6.04048-1.15005,3.90324-6.74286,5.24648-9.7995,5.93997-7.36151,1.6702-12.93347,.30673-18.75162-.67366-19.78659-3.33418-30.9039-.29752-32.39188-4.8815-.28162-.86758,.1759-.7937,1.70154-7.16035,1.50577-6.2838,1.45636-8.00951,2.7388-8.5127,1.93039-.75745,3.22656,2.68803,8.08945,3.86719,4.3093,1.04492,7.86514-.55173,8.94449-1.03639l-.00003-.00002Z" fill="#2f2e41" />
                                </g>
                                <g>
                                    <polygon points="256.10776 304.24255 250.38535 272.34015 233.86249 275.8663 235.34267 303.73599 248.11754 314.71902 256.10776 304.24255" fill="#a0616a" />
                                    <path d="M173.50761,195.64528c1.03436,.83499,4.04422,3.89687,8.61693,4.32455,3.1207,.29189,5.54761-.77612,6.34238-1.10016,9.86015-4.02007,36.36378-2.73717,53.66232,7.97432,3.91739,2.4257,6.12517,4.56865,7.59796,7.30318,2.08836,3.87749,1.74097,7.16592,2.00574,15.60118,.14485,4.61414,.65005,9.21133,.83536,13.82404,1.08478,27.00504,5.16501,31.83624,.73697,37.25284-4.91296,6.0098-15.93172,7.39706-20.04204,3.58429-1.6833-1.56143-1.52438-3.3609-2.23946-7.70731-2.09668-12.74399-6.1123-13.37756-7.32111-22.86923-1.41129-11.08171,3.28967-16.28586,.2498-18.67307-2.81902-2.21375-7.40373,1.83601-18.14053,4.06268-4.91292,1.01889-7.89899,.98932-17.12157,1.08406-35.91492,.369-37.11255,1.29501-42.95737-.69821-2.55722-.87209-20.70715-7.06165-21.62754-17.43758-1.44026-16.23715,40.08189-34.04922,49.40214-26.52557l.00002-.00002Z" fill="#2f2e41" />
                                    <path d="M247.43616,304.6893c1.79837,.31647,3.90115,.68652,5.54907-.62579,1.11507-.88797,1.85529-2.41357,1.78117-3.86517-.08551-1.6749-1.22504-2.66132-1.04201-2.82318,.2787-.24646,3.12833,1.85767,5.57211,5.17599,.46115,.62619,2.52814,3.49573,4.17203,8.5979,1.31711,4.08786,.64261,4.27045,1.54343,6.72348,2.7652,7.52985,9.89267,7.91125,10.34689,13.52118,.17529,2.16507-.69427,4.48001-2.25958,5.76669-3.14343,2.58392-8.52548,.55484-11.44412-.58774-7.02916-2.75177-10.87405-7.00882-15.13779-11.08716-14.50015-13.86978-25.4044-17.59988-24.06155-22.22845,.25415-.87601,.59125-.55798,5.42874-4.96936,4.77454-4.354,5.70271-5.80966,7.04642-5.50592,2.02264,.45724,1.1604,4.03604,4.52206,7.74243,2.97899,3.28445,6.81783,3.96005,7.98309,4.1651h.00003Z" fill="#2f2e41" />
                                </g>
                                <path d="M127.13487,84.84692c.85618-3.06269-.2192-4.1788,.87688-5.55356,.00002-.00004,.44109-.55322,4.38438-2.04605h0c-1.16344-6.75042-.29231-7.89186-.2923-7.8919,1.00398-1.31553,3.0152-1.63355,4.38438-1.46146,2.89578,.36397,3.40837,2.98166,5.26128,2.92293,2.55962-.08114,5.62956-5.20482,4.67668-9.64566-.77728-3.62247-4.12881-6.31266-4.96896-5.84585-.83301,.46284-3.83173-1.5781-4.96896-1.16917-.77666,.27927-4.43236-.09227-5.26128,.29229-.90523,.41999-3.49763,3.03482-3.74548,2.70535-1.72237-2.28946-1.6857-3.0888-2.68496-3.58223-1.77067-.87434-3.69571,.74172-7.01502,2.33834-6.82959,3.28508-8.8294,1.32549-11.984,4.0921-1.59355,1.39756-2.44808,4.06851-4.0921,9.35336-2.29915,7.39081-3.44871,11.08621-2.33834,14.61463,1.13238,3.59835,2.79995,2.81517,5.26127,7.8919,2.73983,5.65125,1.79552,8.93605,4.38439,10.23024,2.00086,1.00026,5.21638,.36365,6.43044-1.46146,2.07861-3.12477-3.29393-7.35177-1.46146-12.27629,1.12484-3.02287,4.59478-5.31493,6.72273-4.67668,2.40606,.72167,2.58325,5.03573,4.0921,4.96897,1.29207-.05716,2.18914-3.2661,2.33834-3.7998l-.00002-.00002Z" fill="#2f2e41" />
                                <path d="M110.47419,105.89199c4.50049-5.04615,22.83196,.17676,24.55257,8.18419,.7077,3.29357-1.90491,4.68425-1.16917,8.47649,1.0761,5.54668,7.16908,5.16857,11.6917,10.81483,6.42075,8.01601-.19392,15.85188,7.01501,29.22926,1.54044,2.85857,2.83881,5.26787,5.55356,7.59961,6.22958,5.35068,12.02718,3.51566,15.19922,8.47649,2.37209,3.70978,1.39748,8.28224,1.16917,9.35336-.93616,4.39206-3.47342,5.46222-5.26128,9.06107-2.97456,5.98761,.39336,10.38356,.58459,17.53755,.23927,8.95093-4.51735,21.35847-14.03004,25.42946-10.68707,4.57356-23.57658-3.00133-29.81385-10.52254-3.72182-4.48801-4.8022-8.62788-6.43044-13.73775-7.27695-22.8373-11.38807-20.77184-16.95297-38.87492-6.3617-20.69511-7.61233-44.94052,0-52.61267,1.00898-1.01692,3.78571-3.36736,5.55356-7.59961,2.37887-5.69507,.32374-8.55598,2.33834-10.81483h.00003Z" fill="#e6e6e6" />
                                <g>
                                    <path id="uuid-35da8825-ceb1-46f8-a8e3-884fcc945dd4-177" d="M176.97331,223.35873c3.48927,4.43333,4.03014,9.82729,1.20837,12.04742-2.82178,2.22012-7.93683,.42567-11.42674-4.0097-1.41838-1.75262-2.39642-3.81944-2.85228-6.02756l-14.54698-18.97093,7.51668-5.73344,14.91145,18.50331c2.03972,.96246,3.81921,2.39954,5.18951,4.1909h-.00002Z" fill="#a0616a" />
                                    <path d="M123.69743,125.12312c.64719-.14454,6.31084-1.31867,10.76347,2.12736,5.11484,3.95855,4.86707,11.10023,4.7802,13.60509-.20073,5.78632-2.46828,6.73006-3.81723,12.40591-2.52377,10.61887,2.28253,20.4873,4.93793,25.93939,.91914,1.88721,3.87206,7.66187,9.75011,13.88094,11.43207,12.09534,21.6324,18.45987,21.6324,18.45987l-10.95802,9.74043s-17.45493-5.32021-29.2823-15.97929c-12.13217-10.93381-30.78935-49.61903-34.65703-59.04257-.33308-.81151,4.38498,12.3821,13.39349-6.94556,2.0548-4.40857,5.81969-12.48606,13.45703-14.19157h-.00005Z" fill="#e6e6e6" />
                                </g>
                            </g>
                            <g>
                                <path id="uuid-ba1531a6-e7ab-4297-b996-1d676f43fe3f-178" d="M273.9451,421.68622c-6.96509,1.06757-12.06003,5.52673-11.37988,9.95923,.68015,4.43253,6.87711,7.15915,13.84454,6.09027,2.78906-.38879,5.44446-1.43985,7.74402-3.06528l29.45425-4.896-1.96582-11.64267-29.38782,4.15851c-2.68179-.86206-5.53104-1.06921-8.30927-.60406h-.00003Z" fill="#ffb6b6" />
                                <polygon points="400.8699 385.39481 389.44897 409.62982 332.03436 428.95758 284.39166 431.49936 283.19855 420.05627 334.83203 409.26022 387.81458 384.22287 400.8699 385.39481" fill="#e6e6e6" />
                                <polygon points="294.97583 477.41565 284.72217 503.35138 271.4527 494.30402 279.29373 467.16196 294.97583 477.41565" fill="#ffb6b6" />
                                <polygon points="252.15169 467.76511 225.00961 493.70087 235.86644 505.16086 263.61166 483.4472 252.15169 467.76511" fill="#ffb6b6" />
                                <polygon points="405.95673 383.32312 405.65515 381.21207 398.71884 367.64105 375.79889 373.67261 380.02097 392.37048 405.95673 383.32312" fill="#ffb6b6" />
                                <path d="M396.30621,473.79669l.70486,9.05923s2.91406,37.98703-20.60907,41.00284-33.77679,6.03156-47.64941-17.49155l-21.71365-38.60205-12.68292,15.09079-16.87177-13.28134s12.06314-47.04623,21.71365-48.85571c1.2063-.22617,2.41263-.33929,3.6001-.36401,7.98938-.16644,15.5206,3.74139,20.30084,10.14508l27.36743,36.66202,9.95209-4.52368,35.88785,11.15842v-.00003Z" fill="#2f2e41" />
                                <path d="M266.02429,502.14508l5.42841-10.25366,15.68207,10.85684s3.61893,13.26944-1.80948,15.07895-20.50735-.60315-20.50735-.60315c0,0-27.74522,6.03156-28.34837,.60315s12.66631-6.63474,12.66631-6.63474l16.8884-9.04736,.00003-.00003Z" fill="#2f2e41" />
                                <path d="M325.13367,494.9072l-41.91943-26.41306-21.41208,19.17517-14.47577-16.8884s26.53891-39.2052,34.37994-41.01468,20.50735-3.01578,20.50735-3.01578l38.60205,35.58627-15.68207,32.5705v-.00003Z" fill="#2f2e41" />
                                <path d="M224.40645,491.28824l13.8726,15.07892-1.82944,1.56488s-3.59898,15.67496-12.04318,10.37241-9.04736-6.50888-9.04736-6.50888c0,0-24.12628,5.42844-26.53891-4.22211s4.22211-7.84103,4.22211-7.84103l6.02444,3.61893,25.33972-12.06314,.00002,.00003Z" fill="#2f2e41" />
                                <circle cx="383.03677" cy="361.00632" r="19.30103" fill="#ffb6b6" />
                                <path d="M378.51309,388.44998l27.74524-8.44421s10.85684,25.33261,9.04736,36.79257c-1.80948,11.45999-18.29459,66.05756-18.29459,66.05756l-36.59271-20.21765s-.60315-12.06314-2.41263-17.49155-7.53946-22.01523,5.12683-35.88785,15.38052-20.80893,15.38052-20.80893l-.00003,.00006Z" fill="#e6e6e6" />
                                <g>
                                    <path id="uuid-375aaccb-22f9-42b6-a352-baabb12db8d2-179" d="M317.44769,515.10181c-4.51538,5.40955-5.38428,12.12427-1.9411,14.99738,3.44315,2.87305,9.89352,.81635,14.40979-4.59576,1.83371-2.13715,3.12897-4.68237,3.77734-7.42273l18.84238-23.1622-9.17844-7.42783-19.28064,22.56531c-2.58105,1.12839-4.85428,2.85858-6.62936,5.0459l.00003-.00006Z" fill="#ffb6b6" />
                                    <polygon points="399.79492 400.61868 406.35291 426.59497 374.25586 477.97375 341.48965 510.90475 330.86948 502.09406 363.91479 460.97745 388.96295 407.99997 399.79492 400.61868" fill="#e6e6e6" />
                                </g>
                                <path d="M365.24362,357.68896c4.94998-.01184,5.23102,.02112,6.03156,0,6.1395-.1619,7.74496-2.57733,10.85684-2.41263,5.55417,.29398-1.77649,28.14084-4.82526,41.01468-2.99002,12.62589,7.11493,23.9397,7.84103,24.72943,10.25668,11.15479,28.27277,13.19449,31.36417,8.44421,2.50223-3.84491-6.36569-9.69107-4.22211-18.0947,2.09543-8.21484,11.77112-7.34009,14.47577-15.07892,2.83246-8.10455-6.68613-12.19214-12.66629-31.96732-3.43442-11.35699-2.82687-13.47311-6.03156-20.50732-8.56613-18.80209-50.55359-10.79666-45.83994,6.63474,.9118,3.37189-1.51474,7.24872,3.01578,7.23788v-.00006Z" fill="#2f2e41" />
                            </g>
                            <g>
                                <path d="M426.8764,128.56088H224.02585c-5.7366,0-10.4035-4.66732-10.4035-10.4035V10.4035c0-5.73617,4.6669-10.4035,10.4035-10.4035h202.85056c5.7366,0,10.4035,4.66732,10.4035,10.4035V118.15739c0,5.73617-4.6669,10.4035-10.4035,10.4035Z" fill="#fff" />
                                <path d="M426.8764,128.56088H224.02585c-5.7366,0-10.4035-4.66732-10.4035-10.4035V10.4035c0-5.73617,4.6669-10.4035,10.4035-10.4035h202.85056c5.7366,0,10.4035,4.66732,10.4035,10.4035V118.15739c0,5.73617-4.6669,10.4035-10.4035,10.4035ZM224.02585,1.73731c-4.77844,0-8.66618,3.88774-8.66618,8.66619V118.15739c0,4.77845,3.88774,8.66619,8.66618,8.66619h202.85056c4.77844,0,8.6662-3.88774,8.6662-8.66619V10.4035c0-4.77845-3.88773-8.66619-8.6662-8.66619H224.02585Z" fill="#3f3d56" />
                                <circle cx="411.22028" cy="10.42386" r="2.60596" fill="#3f3d56" />
                                <circle cx="418.16949" cy="10.42386" r="2.60596" fill="#3f3d56" />
                                <circle cx="425.11874" cy="10.42386" r="2.60596" fill="#3f3d56" />
                                <path d="M228.38948,52.5536c-.71851,0-1.30298,.58448-1.30298,1.30298,0,.35035,.1353,.67439,.38087,.91361,.2477,.25364,.57217,.38937,.9221,.38937h194.99193c.71851,0,1.30298-.58448,1.30298-1.30298,0-.35035-.13531-.67439-.38089-.91361-.24771-.25364-.57217-.38937-.92209-.38937H228.38948Z" fill="#e6e6e6" />
                                <path d="M399.05911,52.11928v3.47462H228.38948c-.47775,0-.91208-.19113-1.22478-.51253-.32146-.3127-.51253-.74703-.51253-1.22478,0-.95555,.78181-1.73731,1.7373-1.73731h170.66963Z" fill="#000000" />
                                <path d="M421.20978,45.60437h-17.37308c-1.91589,0-3.47461-1.55832-3.47461-3.47462s1.55875-3.47462,3.47461-3.47462h17.37308c1.91589,0,3.47461,1.55832,3.47461,3.47462s-1.55875,3.47462-3.47461,3.47462Z" fill="#e6e6e6" />
                                <path d="M307.41605,27.36262h-77.72357c-1.91588,0-3.47462-1.55832-3.47462-3.47462s1.55875-3.47462,3.47462-3.47462h77.72357c1.91589,0,3.47461,1.55832,3.47461,3.47462s-1.55875,3.47462-3.47461,3.47462Z" fill="#e6e6e6" />
                                <path d="M228.38948,91.64306c-.71851,0-1.30298,.58448-1.30298,1.30298,0,.35035,.1353,.67439,.38087,.91361,.2477,.25364,.57217,.38937,.9221,.38937h194.99193c.71851,0,1.30298-.58448,1.30298-1.30298,0-.35035-.13531-.67439-.38089-.91361-.24771-.25364-.57217-.38937-.92209-.38937H228.38948Z" fill="#e6e6e6" />
                                <path d="M332.1727,91.20873v3.47462h-103.78322c-.47775,0-.91208-.19113-1.22478-.51253-.32146-.3127-.51253-.74703-.51253-1.22478,0-.95555,.78181-1.73731,1.7373-1.73731h103.78322Z" fill="#000000" />
                                <path d="M421.20978,84.69383h-17.37308c-1.91589,0-3.47461-1.55832-3.47461-3.47462s1.55875-3.47462,3.47461-3.47462h17.37308c1.91589,0,3.47461,1.55832,3.47461,3.47462s-1.55875,3.47462-3.47461,3.47462Z" fill="#e6e6e6" />
                            </g>
                        </svg>